<svg width="300" height="183" xmlns="http://www.w3.org/2000/svg"><path d="M239.839 114.892c-1.383-.346-2.536-.692-3.573-1.153a8.21 8.21 0 0 1-2.536-1.728c.692-6.109 0-11.41.577-17.403 2.305-23.281 16.942-15.905 30.08-19.708 8.183-2.305 16.366-7.03 18.44-16.712-8.99-10.488-19.016-19.708-29.965-27.545C217.25 5.288 170.688-4.855 128.39 2.176c6.631 11.579 16.513 20.46 27.976 25.931 0 0-11.463 0-21.288-7.338-2.88 1.152-8.647 3.42-11.413 4.803 22.474 21.552 57.626 23.972 82.866 4.61-.115.23-2.305 3.573-4.956 17.518-5.878 29.735-22.82 27.43-43.796 19.939-43.565-15.79-67.537-1.153-89.32-31.118a20.106 20.106 0 0 0-10.257 17.518c0 7.491 4.15 13.83 10.142 17.288 3.272-4.34 4.739-5.575 10.445-5.575-8.83 5.006-9.869 9.378-13.672 21.48-4.61 14.636-2.65 29.62-24.203 33.538-11.41.576-11.18 8.298-15.328 19.823C20.4 155.576 13.484 161.569 0 175.745c5.532 6.684 11.295 7.491 17.172 5.07 12.102-5.07 21.437-20.745 30.196-30.887 9.797-11.294 33.308-6.454 51.057-17.518 12.217-7.491 18.21-17.633 10.142-34.806 5.186 5.763 8.298 13.024 8.76 20.745 20.514-2.65 47.944 22.36 72.953 26.508-2.535-3.227-4.61-6.684-6.108-10.257-2.881-6.915-3.803-13.254-3.227-18.786 2.305 13.715 16.135 31.348 38.379 32.962 5.647.46 11.87-.23 18.325-2.19 7.722-2.305 14.867-5.302 23.396-3.688 6.339 1.153 12.217 4.38 15.905 9.796 5.532 8.068 17.633 9.797 23.05-.115-12.217-31.925-45.87-34-60.161-37.687z" fill="#37474F" fill-rule="evenodd"/></svg>
