<svg id="svg" version="1.1" width="400" height="400" viewBox="0 0 400 400" xmlns="http://www.w3.org/2000/svg" xmlns:xlink="http://www.w3.org/1999/xlink" ><g id="svgg"><path id="path0" d="" stroke="none" fill="#000000" fill-rule="evenodd"></path><path id="path1" d="M299.705 194.833 C 299.705 195.154,299.740 195.285,299.782 195.125 C 299.823 194.965,299.823 194.702,299.782 194.542 C 299.740 194.381,299.705 194.512,299.705 194.833 M299.705 205.167 C 299.705 205.487,299.740 205.619,299.782 205.458 C 299.823 205.298,299.823 205.035,299.782 204.875 C 299.740 204.715,299.705 204.846,299.705 205.167 M194.542 299.782 C 194.702 299.823,194.965 299.823,195.125 299.782 C 195.285 299.740,195.154 299.705,194.833 299.705 C 194.512 299.705,194.381 299.740,194.542 299.782 M204.875 299.782 C 205.035 299.823,205.298 299.823,205.458 299.782 C 205.619 299.740,205.487 299.705,205.167 299.705 C 204.846 299.705,204.715 299.740,204.875 299.782 " stroke="none" fill="#003399" fill-rule="evenodd"></path><path id="path2" d="" stroke="none" fill="#0000ff" fill-rule="evenodd"></path><path id="path3" d="" stroke="none" fill="#0055c6" fill-rule="evenodd"></path><path id="path4" d="M188.667 0.200 C 184.027 0.526,177.688 1.101,175.417 1.403 C 175.050 1.451,174.150 1.564,173.417 1.652 C 170.212 2.039,164.287 3.033,160.250 3.859 C 157.618 4.398,157.287 4.469,155.417 4.897 C 154.775 5.043,153.612 5.308,152.833 5.485 C 151.273 5.840,145.753 7.307,143.917 7.855 C 143.275 8.047,142.375 8.314,141.917 8.448 C 141.458 8.583,140.971 8.736,140.833 8.788 C 140.696 8.841,140.485 8.904,140.366 8.928 C 140.246 8.953,139.796 9.093,139.366 9.239 C 138.935 9.385,137.908 9.724,137.083 9.992 C 131.365 11.851,122.365 15.363,117.333 17.701 C 112.057 20.152,104.608 23.926,102.691 25.119 C 102.476 25.253,101.876 25.593,101.358 25.873 C 97.771 27.818,88.728 33.503,85.667 35.739 C 84.978 36.242,84.926 36.279,82.667 37.895 C 81.704 38.583,80.842 39.207,80.750 39.281 C 80.658 39.356,79.796 40.013,78.833 40.742 C 77.871 41.471,77.046 42.111,77.000 42.164 C 76.954 42.217,76.204 42.814,75.333 43.490 C 73.887 44.614,70.032 47.780,69.833 48.007 C 69.787 48.060,69.225 48.544,68.583 49.083 C 67.942 49.622,67.335 50.143,67.235 50.240 C 67.136 50.337,66.386 51.028,65.569 51.775 C 61.269 55.705,55.563 61.406,51.833 65.498 C 51.054 66.353,50.331 67.139,50.227 67.245 C 49.772 67.709,44.930 73.497,43.656 75.100 C 42.027 77.150,40.131 79.593,39.453 80.513 C 36.286 84.818,32.669 90.115,30.246 94.000 C 28.629 96.591,25.825 101.321,25.703 101.662 C 25.653 101.802,25.486 102.104,25.332 102.333 C 24.545 103.505,20.999 110.359,19.039 114.500 C 17.434 117.892,17.186 118.443,16.002 121.250 C 15.345 122.808,14.709 124.308,14.589 124.583 C 13.607 126.839,10.637 134.972,9.750 137.833 C 9.536 138.521,9.246 139.403,9.104 139.794 C 8.963 140.185,8.856 140.522,8.867 140.544 C 8.879 140.566,8.724 141.108,8.523 141.750 C 7.921 143.671,7.873 143.835,7.269 146.000 C 6.568 148.517,5.640 152.127,5.257 153.833 C 4.776 155.974,4.491 157.225,4.328 157.917 C 3.607 160.966,2.105 169.667,1.652 173.417 C 1.564 174.150,1.451 175.050,1.403 175.417 C 1.075 177.884,0.506 184.282,0.179 189.167 C -0.056 192.685,-0.057 207.452,0.178 210.833 C 0.546 216.130,1.092 222.272,1.401 224.583 C 1.450 224.950,1.568 225.887,1.663 226.667 C 2.126 230.477,3.605 239.041,4.324 242.083 C 4.411 242.450,4.602 243.313,4.749 244.000 C 4.896 244.688,5.086 245.512,5.172 245.833 C 5.257 246.154,5.450 246.942,5.599 247.583 C 7.509 255.793,12.184 270.184,14.758 275.775 C 14.891 276.064,15.000 276.346,15.000 276.402 C 15.000 276.458,15.145 276.822,15.323 277.210 C 15.500 277.599,15.845 278.404,16.090 279.000 C 16.670 280.414,16.868 280.855,18.786 285.000 C 19.621 286.806,22.965 293.434,23.478 294.299 C 23.765 294.784,24.000 295.217,24.000 295.261 C 24.000 295.345,26.366 299.554,27.809 302.039 C 30.322 306.364,35.652 314.403,38.667 318.412 C 38.896 318.717,39.233 319.176,39.417 319.431 C 39.684 319.803,41.626 322.351,42.201 323.083 C 43.359 324.558,45.580 327.309,46.236 328.080 C 46.702 328.627,47.233 329.256,47.417 329.477 C 47.600 329.697,47.825 329.961,47.917 330.064 C 48.010 330.166,48.535 330.775,49.084 331.416 C 50.600 333.185,52.578 335.356,54.917 337.818 C 59.460 342.601,66.201 349.001,69.826 351.974 C 70.235 352.309,70.872 352.853,71.243 353.182 C 77.783 358.996,90.393 367.842,100.083 373.415 C 104.854 376.158,114.761 381.333,115.241 381.333 C 115.271 381.333,115.998 381.662,116.856 382.063 C 124.468 385.622,135.269 389.658,143.692 392.092 C 147.683 393.245,154.501 394.977,157.167 395.515 C 157.671 395.617,158.383 395.768,158.750 395.850 C 160.388 396.219,167.011 397.424,169.167 397.745 C 171.345 398.069,174.259 398.474,175.250 398.589 C 179.742 399.111,181.730 399.306,184.500 399.493 C 185.921 399.590,188.144 399.743,189.441 399.834 C 192.487 400.048,207.765 400.050,210.583 399.837 C 211.775 399.747,213.950 399.594,215.417 399.496 C 216.883 399.399,218.721 399.252,219.500 399.170 C 223.055 398.796,224.291 398.659,224.833 398.582 C 225.154 398.536,225.942 398.429,226.583 398.344 C 229.108 398.008,231.463 397.666,232.417 397.496 C 232.967 397.397,233.829 397.253,234.333 397.176 C 235.422 397.008,239.635 396.220,240.583 396.007 C 240.950 395.924,241.588 395.782,242.000 395.690 C 246.446 394.700,250.734 393.656,252.769 393.069 C 253.237 392.934,253.762 392.791,253.935 392.752 C 254.891 392.535,260.230 390.941,260.917 390.668 C 261.100 390.595,262.225 390.224,263.417 389.844 C 264.608 389.464,265.733 389.085,265.917 389.003 C 266.100 388.920,267.037 388.576,268.000 388.238 C 272.907 386.517,279.393 383.839,284.917 381.254 C 288.193 379.721,293.620 376.972,295.833 375.724 C 296.337 375.440,297.125 375.002,297.583 374.752 C 303.690 371.422,314.583 364.370,319.169 360.781 C 319.308 360.672,320.208 359.985,321.169 359.254 C 322.130 358.523,322.992 357.867,323.083 357.797 C 324.519 356.689,328.704 353.296,328.915 353.069 C 329.008 352.969,329.871 352.219,330.833 351.402 C 331.796 350.586,332.621 349.880,332.667 349.834 C 332.712 349.788,333.162 349.381,333.667 348.930 C 337.980 345.071,344.882 338.171,348.929 333.671 C 349.381 333.169,349.825 332.676,349.917 332.575 C 350.008 332.474,350.458 331.957,350.917 331.425 C 351.375 330.893,351.889 330.298,352.059 330.104 C 352.989 329.039,353.846 328.003,355.658 325.750 C 356.763 324.375,357.730 323.173,357.806 323.079 C 358.012 322.823,360.307 319.814,360.663 319.333 C 360.832 319.104,361.223 318.579,361.530 318.167 C 369.031 308.104,376.442 295.430,382.335 282.583 C 384.118 278.696,386.931 271.745,388.236 268.000 C 388.572 267.037,388.904 266.137,388.976 266.000 C 389.047 265.862,389.426 264.737,389.819 263.500 C 390.212 262.262,390.594 261.100,390.670 260.917 C 390.929 260.287,392.526 254.932,392.752 253.935 C 392.791 253.762,392.934 253.237,393.069 252.769 C 393.654 250.739,394.834 245.889,395.678 242.042 C 395.763 241.652,395.906 241.015,395.995 240.625 C 396.212 239.675,397.000 235.478,397.176 234.333 C 397.253 233.829,397.397 232.967,397.496 232.417 C 397.666 231.463,398.008 229.108,398.344 226.583 C 398.429 225.942,398.536 225.154,398.582 224.833 C 398.659 224.291,398.796 223.055,399.170 219.500 C 399.252 218.721,399.399 216.883,399.496 215.417 C 399.594 213.950,399.747 211.775,399.837 210.583 C 400.050 207.765,400.048 192.487,399.834 189.441 C 399.743 188.144,399.590 185.921,399.493 184.500 C 399.306 181.730,399.111 179.742,398.589 175.250 C 398.474 174.259,398.069 171.345,397.745 169.167 C 397.607 168.243,397.375 166.872,397.081 165.250 C 396.932 164.425,396.743 163.375,396.662 162.917 C 396.441 161.664,396.020 159.503,395.850 158.750 C 395.768 158.383,395.617 157.671,395.515 157.167 C 395.164 155.427,393.944 150.470,392.992 146.917 C 391.429 141.079,389.021 133.817,386.523 127.406 C 385.192 123.988,383.165 119.188,382.072 116.865 C 381.666 116.002,381.333 115.273,381.333 115.245 C 381.333 115.121,378.243 108.885,377.278 107.062 C 374.920 102.607,371.292 96.332,369.197 93.083 C 368.016 91.253,365.097 86.851,364.347 85.769 C 361.563 81.755,355.735 74.168,353.000 71.000 C 352.644 70.587,352.193 70.063,351.998 69.833 C 347.026 63.999,339.698 56.493,333.750 51.141 C 330.899 48.577,326.747 45.097,323.083 42.200 C 322.992 42.128,322.129 41.472,321.167 40.743 C 320.205 40.013,319.342 39.360,319.250 39.290 C 313.077 34.599,300.081 26.299,295.500 24.122 C 295.271 24.013,295.046 23.884,295.000 23.837 C 294.846 23.676,287.261 19.849,285.167 18.876 C 284.571 18.599,283.521 18.110,282.833 17.790 C 280.816 16.850,280.096 16.532,278.633 15.933 C 276.402 15.021,275.936 14.827,275.583 14.667 C 273.454 13.697,265.348 10.734,262.122 9.746 C 261.410 9.527,260.770 9.314,260.700 9.271 C 260.566 9.188,257.721 8.338,254.417 7.394 C 253.317 7.079,251.067 6.485,249.417 6.073 C 247.767 5.661,246.154 5.254,245.833 5.170 C 245.512 5.085,244.688 4.896,244.000 4.749 C 243.313 4.602,242.450 4.410,242.083 4.323 C 241.100 4.089,235.563 3.009,234.500 2.844 C 229.379 2.048,227.725 1.800,226.583 1.655 C 225.850 1.562,224.950 1.447,224.583 1.399 C 222.156 1.082,216.088 0.543,210.833 0.178 C 207.823 -0.031,191.730 -0.015,188.667 0.200 M209.000 100.490 C 209.963 100.588,211.275 100.738,211.917 100.823 C 212.558 100.908,213.758 101.059,214.583 101.159 C 215.408 101.260,216.383 101.411,216.750 101.496 C 217.117 101.581,218.092 101.770,218.917 101.917 C 221.639 102.401,226.198 103.481,227.667 103.988 C 227.896 104.068,228.533 104.262,229.083 104.421 C 231.030 104.983,233.687 105.892,235.917 106.758 C 236.100 106.830,236.287 106.901,236.333 106.917 C 236.572 106.999,237.123 107.214,237.417 107.339 C 241.053 108.885,241.819 109.235,244.500 110.575 C 247.259 111.954,248.569 112.659,250.077 113.574 C 250.765 113.992,251.374 114.333,251.430 114.333 C 251.486 114.333,251.767 114.502,252.054 114.708 C 252.341 114.915,252.704 115.158,252.861 115.250 C 253.933 115.879,254.934 116.533,256.871 117.871 C 258.088 118.712,259.121 119.441,259.167 119.492 C 259.212 119.543,259.700 119.916,260.250 120.321 C 260.800 120.726,261.481 121.251,261.764 121.487 C 262.046 121.723,262.470 122.067,262.706 122.250 C 265.307 124.271,272.794 131.362,274.457 133.379 C 274.662 133.629,275.525 134.648,276.374 135.644 C 277.222 136.641,278.179 137.807,278.500 138.235 C 278.821 138.663,279.161 139.104,279.256 139.215 C 279.351 139.326,279.651 139.717,279.923 140.083 C 280.194 140.450,280.475 140.825,280.547 140.917 C 281.093 141.617,282.118 143.076,282.705 143.989 C 283.092 144.591,283.451 145.121,283.503 145.167 C 283.626 145.277,285.207 147.765,285.622 148.503 C 285.802 148.822,286.382 149.833,286.911 150.749 C 288.562 153.606,290.547 157.602,291.842 160.672 C 292.790 162.920,292.860 163.080,293.014 163.373 C 293.098 163.532,293.167 163.746,293.167 163.848 C 293.167 163.950,293.272 164.269,293.401 164.558 C 293.863 165.597,295.354 169.946,295.751 171.416 C 295.875 171.875,296.196 173.037,296.465 174.000 C 297.166 176.508,297.616 178.457,298.079 181.000 C 298.220 181.779,298.406 182.754,298.492 183.167 C 298.577 183.579,298.766 184.854,298.911 186.000 C 299.056 187.146,299.244 188.608,299.329 189.250 C 299.414 189.892,299.536 191.129,299.600 192.000 C 299.664 192.871,299.734 193.808,299.757 194.083 C 299.811 194.735,299.811 205.265,299.757 205.917 C 299.734 206.192,299.664 207.129,299.600 208.000 C 299.536 208.871,299.414 210.108,299.329 210.750 C 299.244 211.392,299.056 212.854,298.911 214.000 C 298.766 215.146,298.577 216.421,298.490 216.833 C 298.404 217.246,298.176 218.408,297.984 219.417 C 297.543 221.733,297.225 223.233,296.995 224.083 C 296.750 224.988,296.476 226.047,296.435 226.250 C 296.192 227.432,293.970 234.163,293.401 235.442 C 293.272 235.731,293.167 236.046,293.167 236.142 C 293.167 236.956,288.710 246.188,286.539 249.871 C 285.739 251.230,285.008 252.474,284.917 252.636 C 284.636 253.131,283.600 254.745,283.505 254.833 C 283.457 254.879,282.967 255.591,282.417 256.415 C 281.489 257.805,279.674 260.319,279.262 260.785 C 279.164 260.896,278.821 261.338,278.500 261.768 C 278.179 262.198,277.429 263.121,276.833 263.820 C 276.237 264.518,275.342 265.576,274.843 266.170 C 273.653 267.588,267.551 273.682,266.167 274.835 C 265.571 275.331,264.745 276.040,264.331 276.410 C 263.575 277.086,262.821 277.701,261.583 278.651 C 261.217 278.932,260.842 279.222,260.750 279.294 C 259.966 279.914,257.809 281.473,256.583 282.307 C 255.758 282.867,255.008 283.385,254.917 283.457 C 254.718 283.613,253.055 284.679,252.638 284.917 C 252.477 285.008,251.574 285.542,250.631 286.102 C 249.688 286.662,248.579 287.300,248.167 287.519 C 247.754 287.738,247.379 287.956,247.333 288.004 C 247.002 288.350,239.727 291.736,236.583 293.007 C 234.254 293.949,227.965 296.039,226.333 296.415 C 225.771 296.544,224.696 296.819,223.833 297.054 C 223.329 297.192,222.504 297.386,222.000 297.486 C 221.496 297.585,220.708 297.746,220.250 297.842 C 217.496 298.422,213.838 298.984,210.583 299.328 C 209.575 299.435,208.188 299.581,207.500 299.654 C 205.168 299.900,195.453 299.857,192.167 299.587 C 189.467 299.365,188.314 299.234,184.833 298.752 C 183.144 298.518,180.468 298.015,178.583 297.578 C 178.033 297.450,177.358 297.307,177.083 297.260 C 176.602 297.178,176.144 297.058,172.667 296.109 C 170.913 295.630,167.842 294.631,165.667 293.832 C 164.887 293.545,164.063 293.252,163.833 293.179 C 163.604 293.106,163.079 292.894,162.667 292.708 C 162.254 292.522,161.357 292.133,160.672 291.844 C 157.470 290.489,153.609 288.567,150.705 286.881 C 149.813 286.363,148.915 285.859,148.710 285.761 C 148.504 285.663,148.335 285.527,148.335 285.458 C 148.334 285.390,148.261 285.333,148.172 285.333 C 148.025 285.333,145.359 283.713,145.167 283.506 C 145.121 283.457,144.446 282.990,143.667 282.468 C 141.319 280.896,139.635 279.669,138.233 278.511 C 137.949 278.276,137.389 277.821,136.989 277.500 C 136.589 277.179,135.734 276.467,135.089 275.917 C 134.444 275.367,133.693 274.729,133.419 274.500 C 132.485 273.717,125.907 267.085,125.161 266.175 C 124.752 265.675,123.925 264.700,123.325 264.008 C 121.250 261.618,117.382 256.363,115.868 253.878 C 115.620 253.471,115.304 252.966,115.167 252.758 C 114.911 252.370,114.543 251.759,113.156 249.417 C 111.876 247.257,109.396 242.237,108.010 239.000 C 107.716 238.313,107.360 237.497,107.219 237.187 C 107.079 236.878,106.946 236.540,106.924 236.437 C 106.902 236.334,106.837 236.137,106.780 236.000 C 102.615 225.969,100.138 212.437,100.146 199.750 C 100.148 196.798,100.182 195.843,100.425 191.917 C 100.628 188.644,101.572 182.306,102.412 178.583 C 102.536 178.033,102.726 177.171,102.834 176.667 C 102.943 176.162,103.097 175.525,103.177 175.250 C 103.257 174.975,103.434 174.338,103.571 173.833 C 104.516 170.353,105.492 167.406,106.993 163.500 C 108.806 158.786,112.410 151.556,114.706 148.028 C 114.866 147.784,115.048 147.471,115.112 147.333 C 115.238 147.059,116.365 145.301,116.500 145.167 C 116.546 145.121,117.033 144.408,117.582 143.583 C 118.919 141.577,121.959 137.550,123.318 135.987 C 123.922 135.292,124.825 134.242,125.323 133.653 C 126.462 132.310,132.053 126.711,133.500 125.466 C 134.096 124.953,134.961 124.207,135.422 123.809 C 137.541 121.975,140.370 119.797,142.833 118.104 C 143.979 117.316,144.998 116.604,145.097 116.522 C 145.195 116.440,145.817 116.046,146.477 115.645 C 147.137 115.244,147.856 114.804,148.074 114.667 C 151.225 112.681,156.865 109.766,160.672 108.156 C 161.357 107.867,162.217 107.498,162.583 107.336 C 162.950 107.174,163.550 106.948,163.917 106.833 C 164.283 106.717,164.658 106.569,164.750 106.502 C 164.842 106.436,165.067 106.339,165.250 106.286 C 165.433 106.234,166.483 105.879,167.583 105.497 C 169.589 104.801,170.094 104.642,172.833 103.850 C 174.890 103.256,178.083 102.491,180.250 102.074 C 182.958 101.553,183.285 101.496,185.000 101.246 C 191.157 100.349,193.453 100.206,200.833 100.262 C 204.362 100.289,208.037 100.392,209.000 100.490 " stroke="none" fill="#007dc0" fill-rule="evenodd"></path></g></svg>