<?xml version="1.0" encoding="UTF-8"?>
<svg width="30px" height="44px" viewBox="0 0 30 44" version="1.1" xmlns="http://www.w3.org/2000/svg" xmlns:xlink="http://www.w3.org/1999/xlink">
    <!-- Generator: Sketch 56.3 (81716) - https://sketch.com -->
    <title>Path</title>
    <desc>Created with Sketch.</desc>
    <g id="Final" stroke="none" stroke-width="1" fill="none" fill-rule="evenodd">
        <g id="Artboard" transform="translate(-17.000000, -10.000000)" fill="#FFFFFF" fill-rule="nonzero">
            <path d="M38.2361858,10 C43.0557457,10 46.9716381,13.9158924 46.9716381,18.6601467 L46.9716381,52.79511 C46.9716381,53.397555 46.4444988,54 45.7667482,54 L43.3569682,54 C42.6792176,54 42.1520782,53.397555 42.1520782,52.79511 L42.1520782,18.6601467 C42.1520782,16.5515892 40.4200489,14.8195599 38.2361858,14.8195599 C36.1276284,14.8195599 34.395599,16.5515892 34.395599,18.6601467 L34.395599,46.0713936 C34.395599,46.6738386 33.8684597,47.2762836 33.190709,47.2762836 L30.7809291,47.2762836 C30.1031785,47.2762836 29.5760391,46.6738386 29.5760391,46.0713936 L29.5760391,18.6601467 C29.5760391,16.5515892 27.8440098,14.8195599 25.7354523,14.8195599 C23.5515892,14.8195599 21.8195599,16.5515892 21.8195599,18.6601467 L21.8195599,52.79511 C21.8195599,53.397555 21.2924205,54 20.6146699,54 L18.20489,54 C17.602445,54 17,53.397555 17,52.79511 L17,18.6601467 C17,13.9158924 20.9158924,10 25.7354523,10 C28.1452323,10 30.404401,11.0542787 31.9858191,12.7110024 C33.5672372,11.0542787 35.8264059,10 38.2361858,10 Z" id="Path"></path>
        </g>
    </g>
</svg>