<?xml version="1.0" encoding="UTF-8"?>
<svg width="290px" height="80px" viewBox="0 0 290 80" version="1.1" xmlns="http://www.w3.org/2000/svg" xmlns:xlink="http://www.w3.org/1999/xlink">
    <!-- Generator: Sketch 56.3 (81716) - https://sketch.com -->
    <title>Shape</title>
    <desc>Created with Sketch.</desc>
    <g id="Final" stroke="none" stroke-width="1" fill="none" fill-rule="evenodd">
        <g id="Full-Logotype" transform="translate(-55.000000, -160.000000)" fill="#FFFFFF" fill-rule="nonzero">
            <path d="M344.842424,181.672727 L344.842424,188.189091 C344.842424,192.669091 343.077576,196.741818 340.090909,199.592727 C343.077576,202.443636 344.842424,206.380606 344.842424,210.860606 L344.842424,231.088485 C344.842424,232.174545 343.892121,233.260606 342.670303,233.260606 L338.326061,233.260606 C337.104242,233.260606 336.153939,232.174545 336.153939,231.088485 L336.153939,210.860606 C336.153939,207.059394 333.031515,203.93697 329.230303,203.93697 L322.306667,203.93697 L322.306667,231.088485 C322.306667,232.174545 321.220606,233.260606 320.134545,233.260606 L315.790303,233.260606 C314.568485,233.260606 313.618182,232.174545 313.618182,231.088485 L313.618182,170.404848 C313.618182,167.961212 315.518788,166.060606 317.962424,166.060606 L329.230303,166.060606 C337.918788,166.060606 344.842424,173.12 344.842424,181.672727 Z M336.153939,188.189091 L336.153939,181.672727 C336.153939,177.871515 333.031515,174.749091 329.230303,174.749091 L322.306667,174.749091 L322.306667,195.248485 L329.230303,195.248485 C333.031515,195.248485 336.153939,192.126061 336.153939,188.189091 Z M300.85697,174.749091 L289.046061,174.749091 L289.046061,195.248485 L300.85697,195.248485 C302.078788,195.248485 303.029091,196.198788 303.029091,197.420606 L303.029091,201.764848 C303.029091,202.986667 302.078788,203.93697 300.85697,203.93697 L289.046061,203.93697 L289.046061,224.572121 L300.85697,224.572121 C302.078788,224.572121 303.029091,225.522424 303.029091,226.744242 L303.029091,231.088485 C303.029091,232.310303 302.078788,233.260606 300.85697,233.260606 L284.701818,233.260606 C282.258182,233.260606 280.357576,231.224242 280.357576,228.916364 L280.357576,170.404848 C280.357576,167.961212 282.258182,166.060606 284.701818,166.060606 L300.85697,166.060606 C302.078788,166.060606 303.029091,167.010909 303.029091,168.232727 L303.029091,172.57697 C303.029091,173.798788 302.078788,174.749091 300.85697,174.749091 Z M256.328485,166.060606 C264.881212,166.060606 271.940606,173.12 271.940606,181.672727 L271.940606,188.189091 C271.940606,196.877576 264.881212,203.93697 256.328485,203.93697 L249.269091,203.93697 L249.269091,231.088485 C249.269091,232.174545 248.318788,233.260606 247.09697,233.260606 L242.752727,233.260606 C241.666667,233.260606 240.580606,232.174545 240.580606,231.088485 L240.580606,168.232727 C240.580606,167.010909 241.666667,166.060606 242.752727,166.060606 L256.328485,166.060606 Z M263.252121,188.189091 L263.252121,181.672727 C263.252121,177.871515 260.129697,174.749091 256.328485,174.749091 L249.269091,174.749091 L249.269091,195.248485 L256.328485,195.248485 C260.129697,195.248485 263.252121,192.126061 263.252121,188.189091 Z M213.564848,160 C222.253333,160 229.312727,167.059394 229.312727,175.612121 L229.312727,237.149091 C229.312727,238.235152 228.362424,239.321212 227.140606,239.321212 L222.796364,239.321212 C221.574545,239.321212 220.624242,238.235152 220.624242,237.149091 L220.624242,175.612121 C220.624242,171.810909 217.501818,168.688485 213.564848,168.688485 C209.763636,168.688485 206.641212,171.810909 206.641212,175.612121 L206.641212,225.027879 C206.641212,226.113939 205.690909,227.2 204.469091,227.2 L200.124848,227.2 C198.90303,227.2 197.952727,226.113939 197.952727,225.027879 L197.952727,175.612121 C197.952727,171.810909 194.830303,168.688485 191.029091,168.688485 C187.092121,168.688485 183.969697,171.810909 183.969697,175.612121 L183.969697,237.149091 C183.969697,238.235152 183.019394,239.321212 181.797576,239.321212 L177.453333,239.321212 C176.367273,239.321212 175.281212,238.235152 175.281212,237.149091 L175.281212,175.612121 C175.281212,167.059394 182.340606,160 191.029091,160 C195.373333,160 199.446061,161.900606 202.29697,164.887273 C205.147879,161.900606 209.220606,160 213.564848,160 Z M161.841212,166.060606 C163.06303,166.060606 164.013333,167.010909 164.013333,168.232727 L164.013333,217.512727 C164.013333,226.201212 156.953939,233.260606 148.401212,233.260606 C139.712727,233.260606 132.653333,226.201212 132.653333,217.512727 L132.653333,168.232727 C132.653333,167.010909 133.739394,166.060606 134.825455,166.060606 L139.169697,166.060606 C140.391515,166.060606 141.341818,167.010909 141.341818,168.232727 L141.341818,217.512727 C141.341818,221.449697 144.464242,224.572121 148.401212,224.572121 C152.202424,224.572121 155.324848,221.449697 155.324848,217.512727 L155.324848,168.232727 C155.324848,167.010909 156.275152,166.060606 157.49697,166.060606 L161.841212,166.060606 Z M119.213333,166.060606 C120.435152,166.060606 121.385455,167.010909 121.385455,168.232727 L121.385455,231.088485 C121.385455,232.310303 120.435152,233.260606 119.213333,233.260606 L114.869091,233.260606 C113.78303,233.260606 112.69697,232.310303 112.69697,231.088485 L112.69697,203.93697 L98.849697,203.93697 L98.849697,231.088485 C98.849697,232.310303 97.8993939,233.260606 96.6775758,233.260606 L92.3333333,233.260606 C91.1115152,233.260606 90.1612121,232.310303 90.1612121,231.088485 L90.1612121,168.232727 C90.1612121,167.010909 91.1115152,166.060606 92.3333333,166.060606 L96.6775758,166.060606 C97.8993939,166.060606 98.849697,167.010909 98.849697,168.232727 L98.849697,195.248485 L112.69697,195.248485 L112.69697,168.232727 C112.69697,167.010909 113.78303,166.060606 114.869091,166.060606 L119.213333,166.060606 Z M78.0787879,166.060606 C79.3006061,166.060606 80.2509091,167.010909 80.2509091,168.232727 L80.2509091,172.57697 C80.2509091,173.798788 79.3006061,174.749091 78.0787879,174.749091 L71.969697,174.749091 L71.969697,231.088485 C71.969697,232.174545 71.0193939,233.260606 69.7975758,233.260606 L65.4533333,233.260606 C64.2315152,233.260606 63.2812121,232.174545 63.2812121,231.088485 L63.2812121,174.749091 L57.1721212,174.749091 C55.950303,174.749091 55,173.798788 55,172.57697 L55,168.232727 C55,167.010909 55.950303,166.060606 57.1721212,166.060606 L78.0787879,166.060606 Z" id="Shape"></path>
        </g>
    </g>
</svg>